# xmcd CD database file
#
# Track frame offsets:
#	150
#	13221
#	29159
#	46870
#	60252
#	89057
#	103236
#	118520
#	132208
#	149998
#	165181
#	173594
#
# Disc length: 2430 seconds
#
# Revision: 0
# Processed by: cddbd v1.5.2PL0 Copyright (c) Steve Scherf et al.
# Submitted via: CDex 1.51
#
DISCID=a6097c0c
DTITLE=VDELLI - NEVER GOING BACK
DYEAR=1900
DGENRE=Blues
TTITLE0=Change The View
TTITLE1=Never Going Back
TTITLE2=Dream Girl Nightmare
TTITLE3=On The Mines, On The Pipe
TTITLE4=Coming For Me
TTITLE5=Friction Addiction
TTITLE6=Love Me Or Leave Me
TTITLE7='Nuff Your Stuff
TTITLE8=Down The Line
TTITLE9=She Don't Care
TTITLE10=What It Is That You Been Missing
TTITLE11=Bread And Butter
EXTD=
EXTT0=
EXTT1=
EXTT2=
EXTT3=
EXTT4=
EXTT5=
EXTT6=
EXTT7=
EXTT8=
EXTT9=
EXTT10=
EXTT11=
PLAYORDER=
